<svg xmlns="http://www.w3.org/2000/svg" width="512" height="512" viewBox="0 0 24 24" fill="none" stroke="#00BFFF" stroke-width="2" stroke-linecap="round" stroke-linejoin="round" class="lucide lucide-rocket"><path d="M4.5 16.5c-1.5 1.26-2 5-2 5s3.74-.5 5-2c.71-.84.7-2.3.05-3.11.65-.9.05-2.3-.45-3.1S6.24 6.2 5 6.5c-1 .24-1.5.8-1.5 1.5 0 .66.53 1.26 1.2 1.4.6.13 1.1-.3 1.3-1 .2-.66.05-1.36-.45-1.8S3.32 5.56 3 6.5s.5 2.15 1.5 3c.92.75 2.33 1.05 3.5 1"/><path d="m12 12-1-1 1-1 1 1-1 1Z"/><path d="M18 6.5c-1 .24-1.5.8-1.5 1.5 0 .66.53 1.26 1.2 1.4.6.13 1.1-.3 1.3-1 .2-.66.05-1.36-.45-1.8S18.32 5.56 18 6.5s.5 2.15 1.5 3c.92.75 2.33 1.05 3.5 1"/><path d="M12.5 16.5c1.5 1.26 2 5 2 5s-3.74-.5-5-2c-.71-.84-.7-2.3-.05-3.11-.65-.9-.05-2.3.45-3.1S16.76 6.2 18 6.5"/></svg>