<?xml version="1.0" standalone="no"?>
<!DOCTYPE svg PUBLIC "-//W3C//DTD SVG 20010904//EN"
 "http://www.w3.org/TR/2001/REC-SVG-20010904/DTD/svg10.dtd">
<svg version="1.0" xmlns="http://www.w3.org/2000/svg"
 width="192.000000pt" height="192.000000pt" viewBox="0 0 192.000000 192.000000"
 preserveAspectRatio="xMidYMid meet">

<g transform="translate(0.000000,192.000000) scale(0.100000,-0.100000)"
fill="#000000" stroke="none">
<path d="M465 1569 c-130 -6 -341 -32 -353 -44 -2 -2 21 -35 52 -73 l55 -70
48 14 c26 8 100 25 163 37 102 20 145 22 390 21 232 0 292 -4 385 -21 61 -11
111 -20 112 -19 1 1 -22 20 -52 44 -41 31 -74 46 -132 61 -175 44 -404 61
-668 50z"/>
<path d="M560 1414 c-92 -11 -311 -52 -317 -58 -7 -6 110 -146 121 -146 7 0
35 7 62 15 92 28 249 54 402 66 175 14 420 2 597 -31 55 -9 101 -17 103 -15 1
1 -30 28 -69 60 -62 50 -84 61 -148 77 -198 47 -523 62 -751 32z"/>
<path d="M748 1235 c-118 -14 -330 -54 -348 -65 -18 -11 110 -182 130 -174
195 83 522 126 803 105 135 -10 382 -47 452 -68 25 -7 27 -8 -79 75 -50 39
-101 73 -115 76 -14 3 -57 12 -96 21 -199 43 -525 57 -747 30z"/>
<path d="M32 723 c4 -198 5 -211 30 -264 44 -95 126 -140 259 -141 120 0 186
21 241 79 56 58 62 89 66 321 l4 212 -101 0 -101 0 0 -174 c0 -101 -5 -186
-11 -205 -23 -64 -116 -79 -159 -24 -19 24 -20 40 -20 214 l0 189 -106 0 -106
0 4 -207z"/>
<path d="M700 630 l0 -300 95 0 95 0 0 135 c0 74 3 135 8 134 4 0 54 -61 112
-135 l105 -133 93 -1 92 0 0 300 0 300 -100 0 -99 0 -3 -132 -3 -132 -105 132
-105 132 -92 0 -93 0 0 -300z"/>
<path d="M1370 630 l0 -300 260 0 260 0 0 80 0 80 -160 0 -160 0 0 35 0 35
145 0 145 0 0 70 0 70 -145 0 -145 0 0 35 0 35 155 0 155 0 0 80 0 80 -255 0
-255 0 0 -300z"/>
</g>
</svg>
