<?xml version="1.0" standalone="no"?>
<!DOCTYPE svg PUBLIC "-//W3C//DTD SVG 20010904//EN"
 "http://www.w3.org/TR/2001/REC-SVG-20010904/DTD/svg10.dtd">
<svg version="1.0" xmlns="http://www.w3.org/2000/svg"
 width="512.000000pt" height="512.000000pt" viewBox="0 0 512.000000 512.000000"
 preserveAspectRatio="xMidYMid meet">

<g transform="translate(0.000000,512.000000) scale(0.100000,-0.100000)"
fill="#000000" stroke="none">
<path d="M1305 4199 c-295 -12 -533 -36 -790 -80 -168 -28 -228 -42 -227 -54
1 -5 65 -93 144 -193 161 -209 131 -192 278 -152 272 75 550 124 920 162 168
17 857 17 1045 0 288 -27 566 -66 825 -118 30 -6 15 9 -105 105 -77 62 -158
120 -180 130 -46 21 -235 71 -380 100 -247 50 -576 86 -940 101 -262 11 -308
11 -590 -1z"/>
<path d="M1990 3819 c-300 -15 -592 -49 -895 -105 -189 -34 -444 -90 -452 -98
-8 -7 298 -396 310 -396 7 0 64 15 128 34 447 132 878 193 1424 203 525 9 949
-26 1438 -121 92 -18 164 -29 160 -25 -25 23 -404 319 -420 327 -27 15 -308
78 -473 107 -203 35 -459 62 -705 75 -228 11 -284 11 -515 -1z"/>
<path d="M2465 3340 c-310 -14 -692 -59 -990 -116 -147 -28 -423 -93 -443
-104 -10 -5 -8 -13 10 -36 13 -16 84 -112 158 -214 146 -204 169 -232 181
-225 53 33 479 159 669 198 392 81 618 102 1090 102 424 0 580 -11 965 -66
219 -32 562 -100 694 -139 40 -11 41 -13 -59 65 -41 33 -127 100 -190 150
-236 186 -230 182 -315 205 -554 145 -1165 207 -1770 180z"/>
<path d="M93 1953 c3 -502 5 -543 24 -608 101 -353 366 -511 823 -492 372 16
594 159 690 445 43 130 50 234 50 737 l0 455 -275 0 -274 0 -3 -502 c-3 -497
-3 -504 -25 -544 -30 -57 -74 -91 -140 -110 -121 -35 -243 9 -293 106 -35 69
-40 143 -40 602 l0 448 -271 0 -270 0 4 -537z"/>
<path d="M1850 1685 l0 -805 265 0 265 0 2 372 3 371 50 -64 c28 -35 162 -203
298 -372 l248 -307 240 0 239 0 -2 803 -3 802 -262 3 -263 2 0 -357 -1 -358
-37 44 c-20 24 -150 184 -287 355 l-251 311 -252 3 -252 2 0 -805z"/>
<path d="M3640 1685 l0 -805 690 0 690 0 0 220 0 220 -425 0 -425 0 0 90 0 90
390 0 390 0 0 190 0 190 -390 0 -390 0 0 85 0 85 420 0 420 0 0 220 0 220
-685 0 -685 0 0 -805z"/>
</g>
</svg>
